<svg xmlns="http://www.w3.org/2000/svg" viewBox="0 0 515.48 161.11"><defs><style>.cls-1{fill:#651fff;}.cls-2{fill:#222;}</style></defs><title>negarshop-purple</title><g id="Layer_2" data-name="Layer 2"><g id="Layer_1-2" data-name="Layer 1"><path class="cls-1" d="M20,130.29a20.05,20.05,0,0,1-20-20C0,98.9,9.22,90,20.85,90.19a20.06,20.06,0,1,1-.89,40.1Z"></path><path class="cls-2" d="M501.83,75.15l-5.92,1.79a3.84,3.84,0,0,0-2.68,4.33c1.39,8,3.27,16,4,24.08s-3.57,12.1-11.53,12.15H482.6a24.42,24.42,0,0,1-15.67-7.33,84.26,84.26,0,0,1-8.31-9.3q-14.1-18.48-28-37.13l-3.27-4.37-2.45-3.28,6-2.77,42.07-19.5a10.86,10.86,0,0,0,5.31-14.35l-1.49-3.27A4.3,4.3,0,0,0,471,14.09c-18.1,8.78-35.14,17.5-51.73,24.86-7.58,3.36-12.07,7.47-12.71,16.08-.26,3.53.23,5.9,2.36,8.48,5.72,6.94,11.45,13.89,16.78,21.13a119.08,119.08,0,0,1,10,16c3.19,6.23,1,11.41-5.47,14.24a16.4,16.4,0,0,1-5.71,1.63c-11.64.42-23.29.78-34.93.88-13.13.1-15.8-2.67-16-15.75,0-1.17,0-2.33,0-3.5V32.7A5.68,5.68,0,0,0,368,27a12.62,12.62,0,0,0-12.63,12.56c-.1,18.51,0,53,.58,73,.41,13.82,7.66,21,21.48,22.43,10.9,1.1,21.93.95,32.91,1.14,15.56.28,30.35-1.56,40-16.42,1.55,1.6,2.81,2.91,4.06,4.22,6.3,6.63,13.88,11.25,23,11.83l4.71.25v0c2.79-.08,5.8,0,8.57-.18,12.14-.92,21.35-9.62,23.87-21.55,2.4-11.33-.12-22.17-2.55-33.28A8,8,0,0,0,501.83,75.15Z"></path><path class="cls-2" d="M295.37,101.54c.41-9.58-1.83-19.26-3.54-29.43a5,5,0,0,0-6.44-3.93L276.79,71a5,5,0,0,0-3.33,5.64c.07.36.14.71.2,1.07,1.18,7.21,2.84,14.39,3.34,21.65.54,8.08-4.33,12.39-12.28,12.06-7-.28-10.69-4.22-10.8-11.65-.08-5.42,0-10.85,0-16.24a5,5,0,0,0-5-5h-8.82a5,5,0,0,0-5,5c0,5.79.08,11.35-.05,16.92-.16,7-4.69,11.1-11.53,11-7.63-.17-11.37-3.86-11.61-12-.16-5.3-.1-10.6-.07-16a4.94,4.94,0,0,0-4.93-5h-8.87a4.93,4.93,0,0,0-4.93,5c0,5.9.05,11.62,0,17.33-.1,6.61-4,10.51-10.62,10.62-5.5.09-11,.08-16.5,0-10.9-.15-14-3.22-14.09-14-.09-23.65-.09-47.31-.12-71A5.4,5.4,0,0,0,146.4,21h-8.3a5,5,0,0,0-4.95,5c0,23.17,0,46,0,68.88a115.84,115.84,0,0,0,.94,13.93c1.38,10.87,6.47,17.3,17.24,19.25,9.09,1.64,18.5,1.51,27.77,2.1,7.61.49,14.73-.79,20.88-5a4.92,4.92,0,0,1,5.15-.2c12.34,6.72,24.55,7.45,36.73,0a4.91,4.91,0,0,1,5.25.06c.38.25.76.49,1.16.72C265.43,135.45,294.12,130.62,295.37,101.54Z"></path><path class="cls-2" d="M115.43,76.36h.5a5.53,5.53,0,0,0,5.53-5.53V63.37a5.52,5.52,0,0,0-5.53-5.53H47.4c-6.16,0-12.33.11-18.49-.06-6.6-.19-10-3.73-10.16-10.38a32.29,32.29,0,0,1,.6-6.94C20,37,20.83,33.58,21.66,30A5.54,5.54,0,0,0,18,23.5l-7.35-2.36a5.54,5.54,0,0,0-7.1,4.06A144.36,144.36,0,0,0,.2,42.93C-1.86,64,12.44,77.09,31.47,76.55,58.1,75.79,88.78,76.36,115.43,76.36Z"></path><path class="cls-2" d="M341.69,69.75a1.63,1.63,0,0,0-1.64-1.26h0a17,17,0,0,0-17,17c0,7.3,0,14.53-.07,21.75a116.75,116.75,0,0,1-1,16.42c-1.54,10.14-7.36,16-17.58,17.73-4.55.79-9.26.74-13.9,1h-.06a5.3,5.3,0,0,0-5.09,5.27v11.68a1.69,1.69,0,0,0,1.69,1.69c4.08,0,8,.13,11.91,0,22.49-.91,39.71-15.81,41.67-38.13,1.54-17.54.79-35.27,1-52.91A.9.9,0,0,0,341.69,69.75Z"></path><path class="cls-1" d="M194.16,61a20.51,20.51,0,0,0,20.59-20.09,20.28,20.28,0,0,0-40.56-.62A20.52,20.52,0,0,0,194.16,61Z"></path><path class="cls-1" d="M234.73,61a20.52,20.52,0,0,0,20.59-20.09,20.28,20.28,0,0,0-40.56-.62A20.52,20.52,0,0,0,234.73,61Z"></path><path class="cls-1" d="M275.29,61a20.52,20.52,0,0,0,20.6-20.09,20.28,20.28,0,0,0-40.56-.62A20.51,20.51,0,0,0,275.29,61Z"></path><path class="cls-1" d="M102.07,90.19C90.44,90,81.18,98.9,81.22,110.29a20.27,20.27,0,1,0,20.85-20.1Z"></path><path class="cls-1" d="M61.4,90.19C49.77,90,40.51,98.9,40.55,110.29A20.27,20.27,0,1,0,61.4,90.19Z"></path><path class="cls-2" d="M408.67,38.71,460,10.24a3.68,3.68,0,0,0,1.37-5.09c-.31-.54-.62-1.06-.93-1.58-1-1.67-5.11-4.28-6.83-3.39-.58.29-1.13.58-1.68.89q-21.82,12-43.63,24.07c-5.95,3.29-5.38,6.08-5.09,10.61A3.67,3.67,0,0,0,408.67,38.71Z"></path><path class="cls-1" d="M490.46,68.86a15.78,15.78,0,1,0-15.54-16.11A16,16,0,0,0,490.46,68.86Z"></path></g></g></svg>